<mxfile host="app.diagrams.net" modified="2023-05-14T06:45:55.655Z" agent="Mozilla/5.0 (Macintosh; Intel Mac OS X 10_15_7) AppleWebKit/537.36 (KHTML, like Gecko) Chrome/113.0.0.0 Safari/537.36" version="21.3.0" etag="EdjdlOySym2-4dhBg1Fe" type="github">
  <diagram name="第 1 页" id="KzXpoUsinr9L7-K2EYlC">
    <mxGraphModel>
      <root>
        <mxCell id="0" />
        <mxCell id="1" parent="0" />
      </root>
    </mxGraphModel>
  </diagram>
</mxfile>
